HIERARCHY
ROOT Hips
{
  OFFSET 51.4769 56.1698 7.09529
  CHANNELS 6 Xposition Yposition Zposition Zrotation Xrotation Yrotation
  JOINT spine
  {
    OFFSET 0 6.3926 0.367606
    CHANNELS 3 Zrotation Xrotation Yrotation
    JOINT spine1
    {
      OFFSET 0 9.17611 0
      CHANNELS 3 Zrotation Xrotation Yrotation
      JOINT spine2
      {
        OFFSET 0 8.79238 0
        CHANNELS 3 Zrotation Xrotation Yrotation
        JOINT Neck
        {
          OFFSET 0 22.5737 1.07624
          CHANNELS 3 Zrotation Xrotation Yrotation
          JOINT Head
          {
            OFFSET 0 6.82011 0
            CHANNELS 3 Zrotation Xrotation Yrotation
            End Site
            {
              OFFSET 0 16.5085 -5.44427
            }
          }
        }
        JOINT RightShoulder
        {
          OFFSET -3.70221 9.49509 -0.515508
          CHANNELS 3 Zrotation Xrotation Yrotation
          JOINT RightArm
          {
            OFFSET 0 12.4537 0
            CHANNELS 3 Zrotation Xrotation Yrotation
            JOINT RightArmRoll
            {
              OFFSET 0 6.28686 0
              CHANNELS 3 Zrotation Xrotation Yrotation
              JOINT RightForeArm
              {
                OFFSET 0 18.3114 0
                CHANNELS 3 Zrotation Xrotation Yrotation
                JOINT RightForeArmRoll
                {
                  OFFSET 0 7.05483 0
                  CHANNELS 3 Zrotation Xrotation Yrotation
                  JOINT RightHand
                  {
                    OFFSET 0 14.1575 0
                    CHANNELS 3 Zrotation Xrotation Yrotation
                    End Site
                    {
                      OFFSET 0 0 0
                    }
                  }
                }
              }
            }
          }
        }
        JOINT LeftShoulder
        {
          OFFSET 3.70221 9.49509 -0.515508
          CHANNELS 3 Zrotation Xrotation Yrotation
          JOINT LeftArm
          {
            OFFSET 0 12.4537 0
            CHANNELS 3 Zrotation Xrotation Yrotation
            JOINT LeftArmRoll
            {
              OFFSET 0 6.28685 0
              CHANNELS 3 Zrotation Xrotation Yrotation
              JOINT LeftForeArm
              {
                OFFSET 0 18.3114 0
                CHANNELS 3 Zrotation Xrotation Yrotation
                JOINT LeftForeArmRoll
                {
                  OFFSET 0 7.05482 0
                  CHANNELS 3 Zrotation Xrotation Yrotation
                  JOINT LeftHand
                  {
                    OFFSET 0 14.1575 0
                    CHANNELS 3 Zrotation Xrotation Yrotation
                    End Site
                    {
                      OFFSET 0 0 0
                    }
                  }
                }
              }
            }
          }
        }
      }
    }
  }
  JOINT RightUpLeg
  {
    OFFSET -5.66616 -1.03903 -0.87161
    CHANNELS 3 Zrotation Xrotation Yrotation
    JOINT RightUpLegRoll
    {
      OFFSET 0 16.6005 0
      CHANNELS 3 Zrotation Xrotation Yrotation
      JOINT RightLeg
      {
        OFFSET 0 -20.5572 0
        CHANNELS 3 Zrotation Xrotation Yrotation
        JOINT RightLegRoll
        {
          OFFSET 0 20.6244 0
          CHANNELS 3 Zrotation Xrotation Yrotation
          JOINT RightFoot
          {
            OFFSET 0 17.1664 0
            CHANNELS 3 Zrotation Xrotation Yrotation
            JOINT RightToeBase
            {
              OFFSET 0 14.3502 0
              CHANNELS 3 Zrotation Xrotation Yrotation
              End Site
              {
                OFFSET 0.00608252 6.9497 -0.801061
              }
            }
          }
        }
      }
    }
  }
  JOINT LeftUpLeg
  {
    OFFSET 5.66616 -1.03903 -0.87161
    CHANNELS 3 Zrotation Xrotation Yrotation
    JOINT LeftUpLegRoll
    {
      OFFSET 0 16.6006 0
      CHANNELS 3 Zrotation Xrotation Yrotation
      JOINT LeftLeg
      {
        OFFSET 0 20.5571 0
        CHANNELS 3 Zrotation Xrotation Yrotation
        JOINT LeftLegRoll
        {
          OFFSET 0 20.8151 0
          CHANNELS 3 Zrotation Xrotation Yrotation
          JOINT LeftFoot
          {
            OFFSET 0 16.9757 0
            CHANNELS 3 Zrotation Xrotation Yrotation
            JOINT LeftToeBase
            {
              OFFSET 0 14.3502 0
              CHANNELS 3 Zrotation Xrotation Yrotation
              End Site
              {
                OFFSET -0.0272592 6.94971 -0.80106
              }
            }
          }
        }
      }
    }
  }
}
MOTION
Frames: 11
Frame Time: 0.00208333
51.338 57.44 7.67136 0.202667 12.2073 3.70632 -0.489766 1.50273 -0.75044 -0.957994 7.01759 -1.42982 -0.942981 8.66234 -1.41611 4.80456 -3.04204 2.75471 -2.10663 -0.200717 3.47729 51.7808 4.52527 4.13835 112.708 28.0112 -34.2447 1.56359e-006 1.57374e-006 -5.20821e-006 11.3474 76.9115 -11.5073 -9.46027e-006 1.36184e-006 -3 8.02896 -4.95143 0.697702 -41.657 -0.505328 -1.99276 -117.213 28.1715 31.6136 2.33072e-005 -2.12713e-006 5.56896e-006 -17.4559 72.1311 17.4708 4.79956e-006 -2.26942e-006 3 -8.02888 -4.95146 -0.697701 87.1053 84.0639 94.9229 180 7.01588e-015 179.118 179.916 73.9729 177.051 1.62963e-007 2.19174e-006 1.36988 -17.0349 65.4135 17.5915 8.12664 25.2333 -3.47844 -50.9283 86.8607 -128.948 4.54188e-006 -4.6773e-006 -1.00008 8.99758 -76.2148 9.80954 1.01185e-006 -4.00627e-006 -1.67265 16.5644 63.6198 -16.4401 -8.13568 25.2337 3.48596 
51.3507 57.4122 7.61235 0.202087 12.0929 3.73102 -0.489355 1.4982 -0.745859 -0.957394 7.00786 -1.42025 -0.942493 8.65262 -1.40654 4.85557 -2.93564 2.7245 -2.16229 -0.205709 3.45592 51.9743 4.42871 4.03389 112.664 28.0218 -34.2046 1.56359e-006 1.57374e-006 -5.20821e-006 11.3353 76.9033 -11.4956 -9.46027e-006 1.36184e-006 -3 8.02896 -4.95143 0.697702 -41.7394 -0.470875 -2.0096 -117.169 28.1814 31.5147 2.33072e-005 -2.12713e-006 5.56896e-006 -17.4158 72.0966 17.4234 4.79956e-006 -2.26942e-006 3 -8.02888 -4.95146 -0.697701 87.2265 84.0049 94.8009 180 7.01588e-015 179.117 179.92 73.9943 177.045 1.62963e-007 2.19174e-006 1.37175 -17.0377 65.414 17.5905 8.12664 25.2333 -3.47844 -50.9852 86.8583 -128.89 4.54188e-006 -4.6773e-006 -1.00119 9.02647 -76.2221 9.83293 1.01185e-006 -4.00627e-006 -1.67466 16.5634 63.6117 -16.4346 -8.13568 25.2337 3.48596 
51.3555 57.4037 7.54924 0.200827 11.9792 3.75572 -0.48878 1.49359 -0.741296 -0.956464 6.99799 -1.41074 -0.941674 8.64274 -1.39703 4.90482 -2.83085 2.69481 -2.21651 -0.210109 3.43484 52.1637 4.33261 3.93068 112.626 28.0332 -34.1599 1.56359e-006 1.57374e-006 -5.20821e-006 11.3258 76.8861 -11.4837 -9.46027e-006 1.36184e-006 -3 8.02896 -4.95143 0.697702 -41.8209 -0.438032 -2.02526 -117.128 28.1916 31.4165 2.33072e-005 -2.12713e-006 5.56896e-006 -17.3748 72.057 17.3736 4.79956e-006 -2.26942e-006 3 -8.02888 -4.95146 -0.697701 87.3712 83.945 94.6563 180 7.01587e-015 179.116 179.918 74.0121 177.045 1.62963e-007 2.19174e-006 1.37353 -17.0411 65.4152 17.59 8.12664 25.2333 -3.47844 -51.0912 86.8572 -128.782 4.54188e-006 -4.6773e-006 -1.00224 9.04989 -76.2252 9.85131 1.01185e-006 -4.00627e-006 -1.6765 16.5624 63.6036 -16.4291 -8.13568 25.2337 3.48596 
51.3463 57.3617 7.49951 0.198495 11.8654 3.78006 -0.488014 1.48907 -0.736852 -0.95514 6.98832 -1.4015 -0.940456 8.63308 -1.38779 4.95177 -2.728 2.66609 -2.26846 -0.21334 3.41449 52.3471 4.23817 3.82993 112.594 28.0453 -34.1103 1.56359e-006 1.57374e-006 -5.20821e-006 11.3197 76.8588 -11.472 -9.46027e-006 1.36184e-006 -3 8.02896 -4.95143 0.697702 -41.8997 -0.408186 -2.03878 -117.091 28.2015 31.3205 2.33072e-005 -2.12713e-006 5.56896e-006 -17.3335 72.0128 17.3219 4.79956e-006 -2.26942e-006 3 -8.02888 -4.95146 -0.697701 87.5466 83.8852 94.4824 180 7.01587e-015 179.115 179.908 74.0268 177.049 1.62963e-007 2.19174e-006 1.37523 -17.045 65.417 17.5898 8.12664 25.2333 -3.47844 -51.2596 86.8573 -128.611 4.54188e-006 -4.6773e-006 -1.00325 9.07013 -76.225 9.86666 1.01185e-006 -4.00627e-006 -1.67819 16.5614 63.5956 -16.4237 -8.13568 25.2337 3.48596 
51.3559 57.3383 7.43102 0.194699 11.7506 3.80363 -0.487026 1.4848 -0.732627 -0.953358 6.97922 -1.39275 -0.938773 8.62398 -1.37905 4.99588 -2.6274 2.63883 -2.31734 -0.21482 3.39529 52.5224 4.14661 3.7328 112.572 28.0578 -34.0553 1.56359e-006 1.57374e-006 -5.20821e-006 11.3176 76.82 -11.4607 -9.46027e-006 1.36184e-006 -3 8.02896 -4.95143 0.697702 -41.9745 -0.38272 -2.04922 -117.059 28.2108 31.2282 2.33072e-005 -2.12713e-006 5.56896e-006 -17.2921 71.9647 17.2689 4.79956e-006 -2.26942e-006 3 -8.02888 -4.95146 -0.697701 87.7599 83.8264 94.2719 180 7.01587e-015 179.114 179.894 74.0387 177.058 1.62963e-007 2.19174e-006 1.37684 -17.0491 65.4191 17.59 8.12664 25.2333 -3.47844 -51.5037 86.8583 -128.362 4.54188e-006 -4.6773e-006 -1.00422 9.08947 -76.2223 9.88093 1.01185e-006 -4.00627e-006 -1.67974 16.5605 63.5877 -16.4184 -8.13568 25.2337 3.48596 
51.3837 57.3304 7.3876 0.189045 11.6339 3.82608 -0.485788 1.48097 -0.728718 -0.951055 6.97104 -1.38469 -0.93656 8.61581 -1.37101 5.0366 -2.52937 2.6135 -2.36234 -0.213972 3.37768 52.6877 4.05914 3.64049 112.56 28.0705 -33.9947 1.56359e-006 1.57374e-006 -5.20821e-006 11.3203 76.7688 -11.4503 -9.46027e-006 1.36184e-006 -3 8.02896 -4.95143 0.697702 -42.0437 -0.363018 -2.05564 -117.035 28.2189 31.141 2.33072e-005 -2.12713e-006 5.56896e-006 -17.2512 71.9132 17.2152 4.79956e-006 -2.26942e-006 3 -8.02888 -4.95146 -0.697701 88.018 83.7698 94.0186 180 7.01587e-015 179.113 179.874 74.0482 177.07 1.62963e-007 2.19174e-006 1.37837 -17.0532 65.4214 17.5903 8.12664 25.2333 -3.47844 -51.8373 86.8602 -128.023 4.54188e-006 -4.6773e-006 -1.00517 9.11019 -76.2177 9.89608 1.01185e-006 -4.00627e-006 -1.68117 16.5597 63.5801 -16.4132 -8.13568 25.2337 3.48596 
51.4409 57.2702 7.30484 0.181137 11.5144 3.84701 -0.48427 1.47772 -0.725227 -0.948167 6.96415 -1.37754 -0.933749 8.60892 -1.3639 5.07339 -2.43423 2.59057 -2.40263 -0.210214 3.36209 52.8412 3.97695 3.55416 112.559 28.0832 -33.9279 1.56359e-006 1.57374e-006 -5.20821e-006 11.3286 76.7038 -11.4409 -9.46027e-006 1.36184e-006 -3 8.02896 -4.95143 0.697702 -42.1058 -0.350464 -2.05709 -117.018 28.2253 31.0603 2.33072e-005 -2.12713e-006 5.56896e-006 -17.211 71.859 17.1614 4.79956e-006 -2.26942e-006 3 -8.02888 -4.95146 -0.697701 88.3279 83.7162 93.7155 180 7.01587e-015 179.112 179.85 74.0558 177.086 1.62963e-007 2.19174e-006 1.37982 -17.0571 65.4236 17.5907 8.12664 25.2333 -3.47844 -52.274 86.8627 -127.579 4.54188e-006 -4.6773e-006 -1.00611 9.13458 -76.2121 9.91409 1.01185e-006 -4.00627e-006 -1.68251 16.5592 63.5727 -16.4082 -8.13568 25.2337 3.48596 
51.4364 57.248 7.25949 0.170575 11.3913 3.86605 -0.482445 1.47523 -0.722252 -0.944631 6.9589 -1.37153 -0.930276 8.60367 -1.35793 5.10569 -2.34228 2.57051 -2.4374 -0.202968 3.34895 52.9808 3.90128 3.47501 112.573 28.0957 -33.8546 1.56359e-006 1.57374e-006 -5.20821e-006 11.343 76.6239 -11.4329 -9.46027e-006 1.36184e-006 -3 8.02896 -4.95143 0.697702 -42.1593 -0.346442 -2.05264 -117.012 28.2295 30.9877 2.33072e-005 -2.12713e-006 5.56896e-006 -17.1719 71.8025 17.1078 4.79956e-006 -2.26942e-006 3 -8.02888 -4.95146 -0.697701 88.6969 83.6667 93.3559 180 7.01586e-015 179.111 179.822 74.0618 177.105 1.62963e-007 2.19174e-006 1.38118 -17.0606 65.4257 17.5912 8.12664 25.2333 -3.47844 -52.8277 86.8656 -127.016 4.54188e-006 -4.6773e-006 -1.00705 9.16494 -76.2061 9.93692 1.01185e-006 -4.00627e-006 -1.68377 16.559 63.5656 -16.4034 -8.13568 25.2337 3.48596 
51.3348 57.3075 7.22383 0.15696 11.2636 3.88282 -0.480282 1.47368 -0.719894 -0.940383 6.95566 -1.36686 -0.926075 8.60043 -1.35333 5.13294 -2.25386 2.5538 -2.46584 -0.191654 3.33868 53.1047 3.83333 3.40422 112.601 28.1078 -33.7744 1.56359e-006 1.57374e-006 -5.20821e-006 11.3644 76.528 -11.4267 -9.46027e-006 1.36184e-006 -3 8.02896 -4.95143 0.697702 -42.2027 -0.352337 -2.04133 -117.017 28.231 30.9245 2.33072e-005 -2.12713e-006 5.56896e-006 -17.1342 71.7444 17.0551 4.79956e-006 -2.26942e-006 3 -8.02888 -4.95146 -0.697701 89.132 83.6221 92.933 180 7.01586e-015 179.109 179.791 74.0666 177.127 1.62963e-007 2.19173e-006 1.38246 -17.0633 65.4273 17.5915 8.12664 25.2333 -3.47844 -53.5119 86.8685 -126.32 4.54188e-006 -4.6773e-006 -1.00802 9.20355 -76.2007 9.96654 1.01185e-006 -4.00627e-006 -1.68498 16.5592 63.5589 -16.3989 -8.13568 25.2337 3.48596 
51.3699 57.2609 7.16499 0.139886 11.1305 3.89694 -0.477754 1.47321 -0.71825 -0.935362 6.95477 -1.36374 -0.921079 8.59954 -1.35029 5.15459 -2.16928 2.54091 -2.48714 -0.175693 3.33172 53.2109 3.77431 3.34295 112.645 28.1193 -33.687 1.56359e-006 1.57374e-006 -5.20821e-006 11.3933 76.4149 -11.4224 -9.46027e-006 1.36184e-006 -3 8.02896 -4.95143 0.697702 -42.2344 -0.369532 -2.02223 -117.035 28.2294 30.8724 2.33072e-005 -2.12713e-006 5.56896e-006 -17.0983 71.6852 17.0038 4.79956e-006 -2.26942e-006 3 -8.02888 -4.95146 -0.697701 89.6411 83.5834 92.4392 180 7.01586e-015 179.108 179.758 74.0706 177.151 1.62963e-007 2.19174e-006 1.38366 -17.0651 65.4284 17.5916 8.12664 25.2333 -3.47844 -54.3406 86.871 -125.477 4.54188e-006 -4.6773e-006 -1.00901 9.2527 -76.1964 10.0049 1.01185e-006 -4.00627e-006 -1.68614 16.5597 63.5525 -16.3946 -8.13568 25.2337 3.48596 
51.355 57.2643 7.10877 0.118903 10.9928 3.90873 -0.474783 1.47383 -0.717351 -0.929416 6.95624 -1.36224 -0.915137 8.60102 -1.34889 5.17056 -2.08935 2.53213 -2.50162 -0.156167 3.32834 53.3006 3.72354 3.29066 112.708 28.1314 -33.5895 1.56359e-006 1.57374e-006 -5.20821e-006 11.4325 76.2797 -11.4212 -9.46027e-006 1.36184e-006 -3 8.02896 -4.95143 0.697702 -42.2554 -0.399252 -1.99419 -117.066 28.2256 30.8309 2.33072e-005 -2.12713e-006 5.56896e-006 -17.0652 71.6241 16.9544 4.79956e-006 -2.26942e-006 3 -8.02888 -4.95146 -0.697701 90.2271 83.5492 91.8718 180 7.01586e-015 179.106 179.718 74.0716 177.18 1.62963e-007 2.19174e-006 1.38475 -17.0665 65.4294 17.5918 8.12664 25.2333 -3.47844 -55.3212 86.8725 -124.478 4.54188e-006 -4.6773e-006 -1.00997 9.30864 -76.1907 10.0486 1.01185e-006 -4.00628e-006 -1.68718 16.5607 63.5466 -16.3906 -8.13568 25.2337 3.48596 
